<svg xmlns="http://www.w3.org/2000/svg" id="canvas" viewBox="240.676 251.723 1114.396 223.240">
    <path d="M 245.04,418.48 C 246.37 419.19, 247.93 419.75, 250.43 418.62 C 252.94 417.48, 254.00 416.14, 257.58 412.79 C 261.15 409.44, 263.67 407.29, 268.31 401.86 C 272.94 396.42, 275.51 393.14, 280.75 385.61 C 285.99 378.09, 289.05 373.56, 294.50 364.23 C 299.94 354.90, 302.97 349.23, 307.97 338.95 C 312.98 328.67, 315.57 322.70, 319.52 312.84 C 323.47 302.98, 325.31 298.07, 327.73 289.66 C 330.15 281.25, 331.11 277.16, 331.60 270.77 C 332.10 264.38, 332.15 260.76, 330.19 257.71 C 328.24 254.66, 325.13 253.97, 321.81 255.53 C 318.49 257.09, 316.88 259.66, 313.58 265.50 C 310.29 271.34, 308.21 275.46, 305.33 284.72 C 302.46 293.98, 300.98 300.23, 299.21 311.79 C 297.44 323.35, 296.83 330.08, 296.49 342.52 C 296.15 354.96, 296.39 361.88, 297.50 373.98 C 298.62 386.08, 299.76 392.40, 302.08 403.02 C 304.41 413.63, 306.19 418.55, 309.11 427.05 C 312.04 435.56, 313.91 439.42, 316.71 445.55 C 319.50 451.69, 320.98 453.88, 323.11 457.73 C 325.24 461.58, 326.08 463.20, 327.38 464.80 C 328.67 466.40, 329.79 466.00, 329.58 465.73 C 329.37 465.46, 328.88 464.07, 326.32 463.44 C 323.77 462.80, 321.38 462.85, 316.80 462.55 C 312.22 462.26, 308.83 462.43, 303.42 461.97 C 298.02 461.52, 294.82 460.82, 289.78 460.26 C 284.74 459.70, 281.71 459.52, 278.24 459.18 C 274.76 458.83, 273.54 458.90, 272.39 458.54 C 271.24 458.18, 271.76 458.88, 272.49 457.37 C 273.21 455.87, 273.60 454.54, 276.01 451.03 C 278.42 447.51, 280.20 444.87, 284.54 439.82 C 288.87 434.77, 292.09 431.70, 297.70 425.77 C 303.30 419.84, 306.68 416.27, 312.57 410.17 C 318.46 404.08, 321.59 400.54, 327.14 395.30 C 332.70 390.05, 335.79 387.35, 340.35 383.96 C 344.91 380.58, 347.34 379.60, 349.96 378.35 C 352.58 377.11, 352.64 376.90, 353.45 377.72 C 354.26 378.55, 353.90 379.31, 353.99 382.47 C 354.09 385.63, 354.21 388.36, 353.93 393.53 C 353.64 398.70, 353.19 402.50, 352.57 408.31 C 351.95 414.13, 351.35 417.60, 350.82 422.62 C 350.30 427.64, 349.10 430.39, 349.94 433.42 C 350.78 436.44, 352.82 437.65, 355.03 437.73 C 357.23 437.81, 358.82 437.18, 360.95 433.81 C 363.09 430.43, 364.15 426.55, 365.68 420.84 C 367.22 415.13, 367.82 410.81, 368.62 405.25 C 369.43 399.69, 370.35 395.61, 369.72 393.04 C 369.09 390.47, 366.84 390.16, 365.47 392.38 C 364.10 394.60, 364.12 398.83, 362.86 404.15 C 361.59 409.46, 360.82 413.61, 359.16 418.95 C 357.49 424.30, 355.45 427.58, 354.54 430.88 C 353.63 434.19, 354.14 435.05, 354.59 435.47 C 355.04 435.88, 356.31 435.42, 356.78 432.96 C 357.26 430.49, 356.64 427.95, 356.96 423.15 C 357.28 418.35, 357.72 414.79, 358.38 408.95 C 359.04 403.11, 359.80 399.42, 360.24 393.96 C 360.68 388.50, 361.38 385.65, 360.58 381.65 C 359.78 377.65, 358.77 375.63, 356.24 373.97 C 353.72 372.31, 351.66 372.05, 347.94 373.36 C 344.23 374.67, 342.34 376.68, 337.66 380.53 C 332.99 384.39, 330.11 387.19, 324.57 392.62 C 319.03 398.04, 315.92 401.58, 309.98 407.65 C 304.03 413.72, 300.66 417.21, 294.84 422.97 C 289.02 428.73, 285.67 431.57, 280.87 436.45 C 276.08 441.33, 273.77 443.45, 270.88 447.36 C 267.98 451.27, 266.73 452.88, 266.42 456.01 C 266.10 459.13, 267.10 461.01, 269.29 462.98 C 271.47 464.95, 273.36 465.19, 277.33 465.85 C 281.31 466.52, 284.08 465.81, 289.16 466.30 C 294.23 466.78, 297.36 467.54, 302.72 468.27 C 308.09 469.01, 311.33 469.26, 315.98 469.99 C 320.63 470.71, 322.75 472.30, 325.98 471.90 C 329.21 471.50, 330.85 469.95, 332.13 467.98 C 333.42 466.01, 333.38 464.61, 332.39 462.05 C 331.41 459.49, 329.71 458.80, 327.21 455.19 C 324.70 451.58, 322.96 449.81, 319.87 443.99 C 316.79 438.18, 314.87 434.40, 311.80 426.10 C 308.73 417.79, 306.90 412.94, 304.51 402.47 C 302.13 392.01, 300.97 385.74, 299.85 373.76 C 298.73 361.79, 298.50 354.90, 298.92 342.59 C 299.34 330.29, 300.00 323.59, 301.95 312.23 C 303.91 300.88, 305.61 294.73, 308.70 285.83 C 311.79 276.92, 314.24 272.93, 317.39 267.72 C 320.53 262.50, 322.70 261.32, 324.43 259.74 C 326.15 258.16, 325.33 257.66, 326.01 259.83 C 326.68 261.99, 328.04 264.74, 327.80 270.55 C 327.56 276.35, 326.98 280.60, 324.82 288.86 C 322.66 297.12, 320.86 302.06, 317.01 311.84 C 313.16 321.62, 310.58 327.59, 305.58 337.78 C 300.58 347.96, 297.55 353.60, 292.02 362.76 C 286.49 371.92, 283.36 376.39, 277.94 383.58 C 272.52 390.77, 269.82 393.87, 264.92 398.72 C 260.03 403.57, 257.13 405.17, 253.46 407.82 C 249.79 410.46, 248.49 410.50, 246.55 411.95 C 244.62 413.40, 244.10 413.75, 243.80 415.05 C 243.49 416.36, 243.71 417.76, 245.04 418.48" style="stroke: black; fill: black"></path>
    <path d="M 371.10,336.86 C 372.18 336.08, 372.87 335.59, 373.41 335.89 C 373.95 336.19, 374.20 337.87, 373.81 338.36 C 373.41 338.85, 372.69 339.04, 371.43 338.35 C 370.17 337.65, 368.97 335.37, 367.52 334.90 C 366.06 334.43, 364.68 334.98, 364.16 335.99 C 363.64 337.01, 364.13 339.20, 364.90 339.96 C 365.66 340.72, 366.73 340.42, 367.97 339.80 C 369.21 339.18, 370.01 337.64, 371.10 336.86" style="stroke: black; fill: black"></path>
    <path d="M 439.41,382.48 C 438.94 381.06, 438.11 379.86, 435.86 379.09 C 433.60 378.32, 431.56 377.70, 428.14 378.62 C 424.72 379.54, 422.50 380.58, 418.76 383.70 C 415.03 386.81, 412.96 389.25, 409.47 394.18 C 405.99 399.12, 403.99 402.63, 401.34 408.36 C 398.70 414.10, 397.44 417.44, 396.24 422.86 C 395.05 428.28, 394.40 431.35, 395.36 435.46 C 396.32 439.57, 397.99 442.19, 401.04 443.41 C 404.09 444.63, 406.67 443.75, 410.61 441.54 C 414.54 439.33, 416.63 437.17, 420.70 432.37 C 424.77 427.56, 427.02 424.03, 430.98 417.51 C 434.94 410.98, 437.39 405.92, 440.50 399.74 C 443.61 393.57, 445.40 390.20, 446.54 386.63 C 447.68 383.06, 446.73 381.52, 446.21 381.89 C 445.69 382.27, 444.68 383.86, 443.95 388.52 C 443.22 393.17, 442.91 398.09, 442.56 405.15 C 442.20 412.22, 441.94 417.25, 442.16 423.85 C 442.38 430.45, 442.40 433.48, 443.65 438.15 C 444.90 442.82, 445.69 445.06, 448.43 447.19 C 451.17 449.32, 453.74 449.97, 457.35 448.79 C 460.95 447.60, 462.69 445.51, 466.45 441.28 C 470.22 437.05, 472.13 433.78, 476.17 427.63 C 480.21 421.47, 482.61 417.18, 486.67 410.49 C 490.72 403.80, 492.82 399.75, 496.45 394.19 C 500.08 388.64, 502.35 385.74, 504.79 382.72 C 507.23 379.70, 507.65 379.21, 508.64 379.09 C 509.64 378.96, 508.91 379.66, 509.77 382.10 C 510.64 384.54, 511.64 386.71, 512.97 391.29 C 514.30 395.86, 514.96 399.34, 516.41 404.97 C 517.86 410.61, 518.56 414.26, 520.22 419.46 C 521.89 424.67, 522.61 427.31, 524.74 430.99 C 526.87 434.67, 527.81 436.69, 530.86 437.86 C 533.92 439.04, 536.48 438.91, 539.99 436.87 C 543.50 434.84, 544.78 432.19, 548.40 427.67 C 552.02 423.15, 554.13 419.75, 558.09 414.28 C 562.05 408.82, 564.45 405.23, 568.20 400.34 C 571.96 395.45, 574.21 392.72, 576.87 389.84 C 579.53 386.95, 580.41 386.32, 581.50 385.91 C 582.59 385.49, 581.95 385.84, 582.32 387.77 C 582.68 389.69, 583.06 391.37, 583.33 395.52 C 583.60 399.67, 583.55 402.93, 583.65 408.52 C 583.76 414.12, 583.90 417.69, 583.85 423.49 C 583.80 429.29, 583.53 432.52, 583.41 437.52 C 583.30 442.51, 582.27 445.03, 583.28 448.47 C 584.29 451.90, 585.79 453.70, 588.47 454.69 C 591.14 455.69, 593.50 455.54, 596.65 453.44 C 599.79 451.35, 600.97 449.03, 604.20 444.22 C 607.42 439.42, 609.23 435.85, 612.79 429.43 C 616.34 423.01, 618.31 418.80, 621.96 412.12 C 625.62 405.44, 627.77 401.46, 631.06 396.02 C 634.35 390.59, 636.52 387.88, 638.43 384.94 C 640.34 382.01, 640.27 381.28, 640.59 381.37 C 640.91 381.45, 640.29 382.29, 640.04 385.37 C 639.80 388.45, 639.93 391.36, 639.37 396.76 C 638.81 402.15, 638.07 406.27, 637.24 412.33 C 636.41 418.38, 635.69 422.12, 635.24 427.03 C 634.79 431.95, 633.90 434.41, 634.99 436.91 C 636.09 439.42, 638.36 440.40, 640.70 439.55 C 643.03 438.70, 644.23 436.62, 646.66 432.66 C 649.10 428.69, 650.38 425.38, 652.86 419.73 C 655.35 414.08, 656.50 409.86, 659.09 404.42 C 661.68 398.98, 663.56 396.40, 665.83 392.53 C 668.10 388.66, 669.71 387.08, 670.43 385.07 C 671.14 383.06, 670.04 382.01, 669.40 382.49 C 668.77 382.97, 667.83 384.28, 667.25 387.47 C 666.67 390.66, 666.82 393.76, 666.52 398.45 C 666.22 403.13, 665.65 406.35, 665.75 410.90 C 665.86 415.45, 665.54 418.29, 667.05 421.20 C 668.56 424.12, 670.49 425.13, 673.30 425.47 C 676.11 425.81, 678.27 425.24, 681.10 422.91 C 683.93 420.59, 684.78 417.95, 687.44 413.85 C 690.10 409.75, 691.56 406.97, 694.41 402.42 C 697.26 397.86, 699.05 394.87, 701.69 391.09 C 704.33 387.30, 706.26 385.56, 707.63 383.47 C 709.00 381.39, 708.54 380.62, 708.53 380.67 C 708.52 380.71, 707.65 381.36, 707.59 383.69 C 707.54 386.01, 708.07 388.00, 708.25 392.30 C 708.43 396.59, 708.36 399.76, 708.50 405.16 C 708.63 410.56, 708.74 413.96, 708.93 419.29 C 709.13 424.62, 708.71 427.50, 709.47 431.80 C 710.22 436.11, 710.52 438.26, 712.70 440.81 C 714.89 443.35, 717.00 444.76, 720.39 444.55 C 723.77 444.34, 725.81 442.91, 729.63 439.74 C 733.45 436.57, 735.34 433.76, 739.50 428.71 C 743.66 423.66, 745.99 420.56, 750.43 414.48 C 754.87 408.41, 757.60 404.12, 761.69 398.34 C 765.77 392.56, 768.31 389.32, 770.85 385.58 C 773.38 381.85, 774.08 380.47, 774.37 379.67 C 774.66 378.86, 772.82 379.17, 772.32 381.56 C 771.81 383.95, 772.06 386.74, 771.87 391.63 C 771.67 396.53, 771.43 400.32, 771.35 406.03 C 771.28 411.74, 771.16 415.24, 771.51 420.19 C 771.87 425.14, 771.54 427.70, 773.14 430.78 C 774.74 433.86, 776.67 435.25, 779.50 435.57 C 782.33 435.90, 784.29 435.14, 787.30 432.39 C 790.30 429.65, 791.32 427.00, 794.52 421.85 C 797.73 416.70, 799.66 412.83, 803.32 406.64 C 806.97 400.45, 809.17 396.45, 812.78 390.91 C 816.39 385.37, 818.70 382.26, 821.37 378.96 C 824.05 375.66, 825.05 374.67, 826.15 374.40 C 827.26 374.14, 826.43 374.84, 826.89 377.64 C 827.34 380.44, 828.02 383.17, 828.43 388.38 C 828.84 393.60, 828.64 397.78, 828.93 403.72 C 829.23 409.65, 829.09 413.32, 829.91 418.06 C 830.73 422.80, 830.97 425.05, 833.05 427.42 C 835.12 429.80, 837.39 430.64, 840.28 429.93 C 843.17 429.23, 844.76 427.42, 847.50 423.91 C 850.25 420.40, 851.37 417.11, 854.00 412.39 C 856.64 407.67, 858.01 404.64, 860.68 400.32 C 863.35 396.00, 865.41 393.73, 867.36 390.79 C 869.31 387.86, 870.14 386.51, 870.44 385.64 C 870.74 384.77, 869.25 384.80, 868.85 386.45 C 868.46 388.11, 868.55 390.12, 868.46 393.92 C 868.38 397.71, 868.44 400.64, 868.42 405.42 C 868.40 410.21, 868.12 413.05, 868.35 417.84 C 868.58 422.62, 868.12 425.52, 869.56 429.36 C 871.00 433.21, 872.33 435.43, 875.57 437.06 C 878.81 438.70, 881.75 438.30, 885.74 437.54 C 889.73 436.77, 892.44 435.50, 895.53 433.23 C 898.61 430.95, 900.63 428.28, 901.14 426.15 C 901.66 424.01, 900.11 422.55, 898.10 422.55 C 896.09 422.56, 893.95 424.71, 891.08 426.19 C 888.21 427.67, 886.29 429.00, 883.75 429.95 C 881.21 430.90, 879.89 431.48, 878.36 430.94 C 876.83 430.40, 876.74 429.93, 876.10 427.27 C 875.45 424.60, 875.20 421.95, 875.14 417.62 C 875.09 413.30, 875.55 410.42, 875.83 405.65 C 876.10 400.88, 876.72 397.95, 876.50 393.78 C 876.28 389.61, 876.27 387.21, 874.73 384.79 C 873.18 382.38, 871.34 381.35, 868.77 381.70 C 866.19 382.05, 864.56 383.48, 861.87 386.54 C 859.17 389.61, 858.03 392.52, 855.30 397.02 C 852.57 401.53, 850.96 404.49, 848.23 409.05 C 845.50 413.61, 843.67 416.56, 841.66 419.81 C 839.66 423.06, 838.98 424.39, 838.22 425.31 C 837.47 426.23, 838.31 426.05, 837.89 424.41 C 837.47 422.77, 836.69 421.29, 836.11 417.09 C 835.54 412.89, 835.34 409.25, 835.03 403.40 C 834.71 397.56, 835.04 393.42, 834.55 387.87 C 834.07 382.33, 834.32 379.21, 832.59 375.67 C 830.87 372.13, 828.94 370.21, 825.92 370.18 C 822.89 370.14, 820.88 371.88, 817.46 375.51 C 814.04 379.15, 812.46 382.62, 808.80 388.34 C 805.14 394.05, 802.95 398.03, 799.15 404.10 C 795.34 410.17, 793.10 413.96, 789.76 418.70 C 786.42 423.43, 784.46 425.27, 782.46 427.78 C 780.46 430.28, 780.33 431.08, 779.76 431.20 C 779.19 431.32, 779.98 430.69, 779.60 428.39 C 779.21 426.10, 778.17 424.16, 777.82 419.71 C 777.47 415.27, 777.70 411.74, 777.87 406.17 C 778.04 400.60, 778.50 396.93, 778.66 391.87 C 778.81 386.81, 779.72 383.88, 778.63 380.86 C 777.53 377.85, 775.58 376.49, 773.18 376.81 C 770.78 377.12, 769.65 378.65, 766.61 382.45 C 763.57 386.24, 761.92 389.91, 757.97 395.78 C 754.02 401.66, 751.33 405.92, 746.86 411.83 C 742.38 417.74, 739.84 420.72, 735.61 425.33 C 731.37 429.95, 728.87 432.31, 725.66 434.91 C 722.46 437.52, 721.14 437.93, 719.57 438.38 C 718.00 438.82, 718.56 438.66, 717.81 437.13 C 717.06 435.60, 716.41 434.34, 715.83 430.73 C 715.25 427.12, 715.11 424.18, 714.92 419.07 C 714.72 413.95, 714.72 410.54, 714.87 405.17 C 715.02 399.80, 715.58 396.86, 715.67 392.23 C 715.77 387.60, 716.57 385.07, 715.36 382.02 C 714.14 378.97, 712.22 377.71, 709.62 376.98 C 707.02 376.26, 705.04 376.30, 702.37 378.40 C 699.71 380.49, 698.95 383.34, 696.29 387.46 C 693.63 391.58, 692.02 394.52, 689.07 398.98 C 686.12 403.44, 684.25 406.08, 681.53 409.77 C 678.81 413.45, 677.12 415.15, 675.47 417.39 C 673.82 419.64, 673.57 420.64, 673.28 420.99 C 672.99 421.35, 673.95 421.19, 674.03 419.17 C 674.10 417.16, 673.54 414.94, 673.66 410.91 C 673.77 406.87, 674.26 403.69, 674.61 399.01 C 674.95 394.32, 675.96 391.15, 675.39 387.49 C 674.82 383.82, 673.71 381.89, 671.78 380.67 C 669.84 379.46, 667.94 379.63, 665.71 381.41 C 663.49 383.18, 662.96 385.44, 660.65 389.57 C 658.34 393.70, 656.84 396.54, 654.17 402.05 C 651.49 407.57, 649.95 411.66, 647.27 417.13 C 644.60 422.61, 642.66 425.55, 640.78 429.42 C 638.91 433.29, 638.03 435.07, 637.89 436.48 C 637.76 437.89, 639.39 438.21, 640.11 436.46 C 640.82 434.71, 640.87 432.38, 641.46 427.71 C 642.05 423.04, 642.24 419.18, 643.07 413.12 C 643.89 407.07, 644.93 403.11, 645.60 397.45 C 646.27 391.79, 647.26 388.63, 646.42 384.82 C 645.57 381.00, 643.82 379.01, 641.38 378.37 C 638.94 377.73, 637.08 378.54, 634.23 381.62 C 631.38 384.69, 630.33 388.03, 627.13 393.72 C 623.93 399.42, 621.92 403.40, 618.24 410.07 C 614.55 416.73, 612.44 420.90, 608.69 427.05 C 604.94 433.20, 602.76 436.63, 599.50 440.84 C 596.23 445.04, 594.25 446.13, 592.35 448.07 C 590.45 450.02, 590.49 450.74, 589.99 450.56 C 589.50 450.39, 590.03 449.81, 589.88 447.20 C 589.73 444.59, 589.36 442.25, 589.25 437.52 C 589.15 432.79, 589.27 429.35, 589.35 423.55 C 589.44 417.76, 589.53 414.24, 589.68 408.55 C 589.83 402.85, 590.41 399.79, 590.11 395.08 C 589.80 390.38, 590.00 387.80, 588.15 385.01 C 586.29 382.23, 583.88 380.98, 580.82 381.16 C 577.76 381.34, 576.18 382.68, 572.85 385.90 C 569.52 389.12, 567.95 392.22, 564.16 397.28 C 560.38 402.34, 557.97 405.86, 553.93 411.21 C 549.89 416.56, 547.46 419.93, 543.97 424.01 C 540.48 428.09, 538.65 429.84, 536.47 431.61 C 534.29 433.38, 534.32 433.56, 533.06 432.85 C 531.81 432.14, 531.68 431.09, 530.21 428.06 C 528.74 425.03, 527.31 422.59, 525.71 417.69 C 524.11 412.79, 523.50 409.19, 522.21 403.56 C 520.92 397.93, 520.60 394.46, 519.26 389.52 C 517.91 384.58, 517.65 381.79, 515.48 378.87 C 513.31 375.94, 511.32 374.80, 508.41 374.90 C 505.50 374.99, 504.05 375.96, 500.92 379.35 C 497.78 382.74, 496.30 386.04, 492.73 391.83 C 489.16 397.62, 487.17 401.67, 483.07 408.29 C 478.98 414.92, 476.41 419.12, 472.28 424.98 C 468.14 430.83, 465.83 433.93, 462.39 437.56 C 458.95 441.18, 457.16 442.01, 455.08 443.10 C 453.00 444.18, 453.24 444.24, 451.99 442.98 C 450.73 441.73, 449.73 440.69, 448.81 436.84 C 447.89 432.98, 447.53 429.98, 447.39 423.71 C 447.25 417.43, 447.69 412.42, 448.09 405.46 C 448.50 398.49, 449.56 393.76, 449.43 388.86 C 449.30 383.95, 448.97 381.84, 447.44 380.93 C 445.92 380.02, 444.07 380.96, 441.81 384.29 C 439.54 387.63, 439.11 391.44, 436.14 397.59 C 433.17 403.75, 430.85 408.79, 426.98 415.05 C 423.10 421.32, 420.68 424.64, 416.77 428.92 C 412.87 433.19, 410.23 434.50, 407.45 436.43 C 404.67 438.36, 404.11 438.96, 402.87 438.56 C 401.63 438.16, 401.52 437.34, 401.26 434.43 C 401.01 431.52, 400.60 428.76, 401.57 424.00 C 402.55 419.23, 403.63 415.87, 406.13 410.60 C 408.63 405.33, 410.73 401.87, 414.09 397.64 C 417.46 393.41, 419.71 391.40, 422.94 389.46 C 426.18 387.53, 427.87 388.36, 430.28 387.95 C 432.68 387.54, 433.35 387.77, 434.94 387.41 C 436.54 387.06, 437.34 387.18, 438.23 386.20 C 439.13 385.21, 439.89 383.91, 439.41 382.48" style="stroke: black; fill: black"></path>
    <path d="M 1046.48,275.98 C 1044.88 275.24, 1042.57 274.75, 1039.53 276.09 C 1036.50 277.44, 1034.86 279.26, 1031.32 282.70 C 1027.77 286.14, 1025.56 288.09, 1021.81 293.29 C 1018.05 298.49, 1016.18 301.87, 1012.54 308.70 C 1008.90 315.53, 1006.62 319.70, 1003.59 327.45 C 1000.57 335.19, 999.04 339.46, 997.42 347.43 C 995.80 355.39, 995.33 359.82, 995.49 367.26 C 995.66 374.70, 996.14 378.66, 998.24 384.62 C 1000.34 390.59, 1001.92 393.41, 1005.99 397.08 C 1010.06 400.75, 1012.83 402.21, 1018.57 402.98 C 1024.32 403.74, 1027.86 403.42, 1034.71 400.91 C 1041.55 398.41, 1045.45 396.08, 1052.79 390.46 C 1060.14 384.85, 1064.02 380.91, 1071.44 372.84 C 1078.86 364.77, 1082.80 359.69, 1089.90 350.10 C 1096.99 340.52, 1100.75 334.74, 1106.91 324.93 C 1113.07 315.12, 1115.99 309.79, 1120.69 301.04 C 1125.40 292.28, 1127.39 287.86, 1130.42 281.16 C 1133.44 274.46, 1135.02 271.92, 1135.82 267.53 C 1136.62 263.14, 1136.10 260.92, 1134.41 259.21 C 1132.72 257.50, 1130.07 257.07, 1127.37 258.97 C 1124.67 260.86, 1123.68 263.53, 1120.91 268.67 C 1118.14 273.82, 1116.42 277.39, 1113.51 284.67 C 1110.60 291.95, 1108.95 296.56, 1106.36 305.06 C 1103.76 313.56, 1102.38 318.55, 1100.55 327.15 C 1098.72 335.76, 1098.21 340.27, 1097.23 348.07 C 1096.24 355.87, 1095.78 359.96, 1095.61 366.16 C 1095.45 372.36, 1095.40 375.02, 1096.39 379.08 C 1097.38 383.14, 1098.12 385.14, 1100.55 386.47 C 1102.98 387.79, 1105.49 387.64, 1108.53 385.70 C 1111.57 383.76, 1112.51 381.18, 1115.74 376.77 C 1118.97 372.36, 1121.10 369.08, 1124.69 363.65 C 1128.28 358.22, 1130.40 354.34, 1133.69 349.61 C 1136.98 344.89, 1139.06 342.64, 1141.14 340.03 C 1143.22 337.42, 1143.58 336.64, 1144.11 336.56 C 1144.63 336.49, 1143.60 337.12, 1143.76 339.65 C 1143.91 342.18, 1144.56 344.52, 1144.90 349.20 C 1145.25 353.87, 1145.12 357.43, 1145.48 363.02 C 1145.85 368.62, 1145.79 372.17, 1146.72 377.17 C 1147.66 382.16, 1147.89 384.87, 1150.16 387.99 C 1152.43 391.10, 1154.64 392.54, 1158.07 392.73 C 1161.50 392.93, 1163.70 391.79, 1167.32 388.96 C 1170.94 386.13, 1172.64 383.53, 1176.19 378.58 C 1179.73 373.62, 1181.74 370.33, 1185.04 364.16 C 1188.34 357.99, 1190.00 353.87, 1192.70 347.73 C 1195.39 341.59, 1196.83 338.25, 1198.52 333.46 C 1200.21 328.67, 1201.42 326.41, 1201.16 323.76 C 1200.91 321.11, 1199.08 319.97, 1197.24 320.19 C 1195.41 320.40, 1193.79 321.54, 1191.99 324.81 C 1190.18 328.09, 1189.77 330.98, 1188.23 336.55 C 1186.69 342.12, 1185.67 345.83, 1184.28 352.67 C 1182.89 359.51, 1182.01 363.71, 1181.29 370.76 C 1180.58 377.80, 1180.12 381.79, 1180.69 387.89 C 1181.26 393.98, 1181.75 397.32, 1184.13 401.21 C 1186.52 405.10, 1188.76 406.86, 1192.64 407.32 C 1196.51 407.77, 1199.00 406.45, 1203.52 403.49 C 1208.03 400.52, 1210.41 397.87, 1215.19 392.49 C 1219.97 387.10, 1222.63 383.18, 1227.42 376.56 C 1232.21 369.93, 1234.88 365.50, 1239.15 359.36 C 1243.41 353.21, 1245.87 349.80, 1248.75 345.82 C 1251.63 341.85, 1252.91 340.45, 1253.56 339.47 C 1254.21 338.48, 1252.45 338.51, 1251.98 340.89 C 1251.52 343.27, 1251.62 346.28, 1251.25 351.35 C 1250.89 356.42, 1250.42 360.59, 1250.15 366.25 C 1249.89 371.92, 1249.34 375.23, 1249.94 379.69 C 1250.54 384.16, 1250.90 386.48, 1253.17 388.58 C 1255.44 390.69, 1258.00 391.48, 1261.29 390.21 C 1264.57 388.93, 1265.95 385.97, 1269.59 382.21 C 1273.23 378.45, 1275.49 375.38, 1279.50 371.40 C 1283.51 367.41, 1286.14 364.83, 1289.65 362.28 C 1293.17 359.73, 1294.76 358.93, 1297.09 358.64 C 1299.43 358.34, 1299.82 358.56, 1301.33 360.79 C 1302.85 363.02, 1303.46 365.19, 1304.65 369.77 C 1305.85 374.36, 1305.81 377.98, 1307.32 383.72 C 1308.84 389.47, 1309.86 393.17, 1312.22 398.49 C 1314.59 403.81, 1315.53 406.91, 1319.17 410.32 C 1322.81 413.74, 1325.84 414.55, 1330.43 415.57 C 1335.01 416.60, 1337.96 416.08, 1342.11 415.45 C 1346.25 414.81, 1349.53 413.87, 1351.15 412.42 C 1352.76 410.97, 1352.15 408.84, 1350.19 408.21 C 1348.23 407.57, 1345.08 408.92, 1341.35 409.26 C 1337.61 409.60, 1335.22 410.46, 1331.51 409.90 C 1327.80 409.33, 1325.69 409.14, 1322.81 406.44 C 1319.93 403.74, 1319.11 401.20, 1317.11 396.39 C 1315.10 391.57, 1314.12 387.97, 1312.77 382.35 C 1311.42 376.73, 1311.69 373.32, 1310.35 368.27 C 1309.00 363.21, 1308.75 360.18, 1306.03 357.07 C 1303.31 353.96, 1300.70 352.65, 1296.76 352.71 C 1292.81 352.77, 1290.61 354.54, 1286.28 357.38 C 1281.96 360.21, 1279.41 362.84, 1275.13 366.90 C 1270.86 370.95, 1268.36 374.15, 1264.92 377.66 C 1261.48 381.17, 1259.53 382.88, 1257.93 384.46 C 1256.33 386.04, 1257.19 386.60, 1256.91 385.55 C 1256.62 384.50, 1256.52 383.01, 1256.51 379.21 C 1256.51 375.41, 1256.61 372.07, 1256.88 366.57 C 1257.15 361.08, 1257.62 357.02, 1257.85 351.73 C 1258.07 346.44, 1259.18 343.22, 1258.01 340.12 C 1256.85 337.01, 1254.66 335.66, 1252.03 336.21 C 1249.40 336.76, 1248.13 338.73, 1244.87 342.89 C 1241.60 347.06, 1239.86 350.77, 1235.71 357.02 C 1231.56 363.27, 1228.89 367.66, 1224.10 374.14 C 1219.32 380.61, 1216.49 384.39, 1211.80 389.40 C 1207.11 394.41, 1204.40 396.69, 1200.67 399.20 C 1196.93 401.70, 1195.54 402.05, 1193.13 401.93 C 1190.72 401.81, 1190.17 401.51, 1188.63 398.61 C 1187.08 395.70, 1185.96 392.90, 1185.39 387.42 C 1184.81 381.94, 1185.00 377.96, 1185.74 371.22 C 1186.47 364.49, 1187.39 360.32, 1189.07 353.77 C 1190.75 347.21, 1192.20 343.68, 1194.14 338.45 C 1196.07 333.23, 1197.82 330.96, 1198.76 327.63 C 1199.70 324.30, 1199.46 322.79, 1198.84 321.82 C 1198.22 320.84, 1196.76 320.77, 1195.65 322.75 C 1194.54 324.73, 1194.76 327.09, 1193.30 331.72 C 1191.85 336.35, 1190.88 339.86, 1188.39 345.89 C 1185.89 351.91, 1184.15 355.97, 1180.83 361.85 C 1177.51 367.73, 1175.28 370.83, 1171.78 375.28 C 1168.29 379.72, 1166.07 381.76, 1163.35 384.07 C 1160.64 386.39, 1159.74 386.76, 1158.20 386.85 C 1156.66 386.93, 1156.73 386.66, 1155.66 384.50 C 1154.59 382.34, 1153.60 380.42, 1152.84 376.06 C 1152.08 371.69, 1152.07 368.15, 1151.85 362.69 C 1151.63 357.23, 1152.02 353.75, 1151.76 348.76 C 1151.50 343.77, 1151.99 340.96, 1150.53 337.74 C 1149.07 334.52, 1147.21 333.05, 1144.46 332.67 C 1141.71 332.30, 1139.84 333.10, 1136.79 335.87 C 1133.74 338.64, 1132.54 341.59, 1129.20 346.52 C 1125.85 351.45, 1123.75 355.22, 1120.08 360.53 C 1116.41 365.83, 1114.01 369.03, 1110.84 373.04 C 1107.67 377.06, 1105.85 378.59, 1104.22 380.61 C 1102.58 382.62, 1103.18 383.63, 1102.66 383.11 C 1102.15 382.58, 1102.21 381.37, 1101.64 377.98 C 1101.07 374.59, 1099.98 372.06, 1099.80 366.16 C 1099.63 360.26, 1099.94 356.14, 1100.75 348.48 C 1101.56 340.82, 1102.04 336.32, 1103.85 327.86 C 1105.66 319.39, 1107.06 314.45, 1109.82 306.16 C 1112.57 297.87, 1114.41 293.36, 1117.61 286.43 C 1120.80 279.49, 1122.91 276.08, 1125.77 271.48 C 1128.63 266.88, 1130.67 265.54, 1131.91 263.42 C 1133.15 261.30, 1132.06 260.23, 1131.95 260.86 C 1131.85 261.50, 1132.29 262.79, 1131.37 266.59 C 1130.44 270.39, 1129.95 273.22, 1127.33 279.85 C 1124.71 286.49, 1122.77 291.01, 1118.26 299.76 C 1113.75 308.50, 1110.85 313.83, 1104.77 323.59 C 1098.68 333.36, 1094.93 339.11, 1087.85 348.58 C 1080.77 358.05, 1076.79 363.07, 1069.38 370.92 C 1061.98 378.77, 1058.01 382.56, 1050.82 387.82 C 1043.62 393.09, 1039.74 395.08, 1033.41 397.26 C 1027.08 399.44, 1024.05 399.40, 1019.15 398.72 C 1014.25 398.04, 1012.32 396.96, 1008.90 393.86 C 1005.48 390.77, 1004.01 388.59, 1002.07 383.25 C 1000.13 377.91, 999.43 374.18, 999.20 367.16 C 998.97 360.13, 999.34 355.80, 1000.91 348.14 C 1002.47 340.47, 1003.97 336.30, 1007.02 328.81 C 1010.06 321.33, 1012.39 317.19, 1016.15 310.70 C 1019.90 304.22, 1021.90 301.01, 1025.78 296.37 C 1029.65 291.74, 1032.06 290.22, 1035.54 287.53 C 1039.01 284.83, 1040.74 284.44, 1043.14 282.89 C 1045.55 281.35, 1046.89 281.20, 1047.56 279.82 C 1048.23 278.43, 1048.09 276.73, 1046.48 275.98" style="stroke: black; fill: black"></path>
</svg>